# xmcd
#
# Track frame offsets:
#   150
#   18172
#   31490
#   43835
#   57005
#   75755
#   90540
#   108887
#   121162
#   131602
#   149110
#   159952
#   174897
#   185400
#   199130
#   207105
#   223205
#   241682
#   256167
#   269365
#   281395
#   293940
#   305430
#
# Disc length: 4282 seconds
#
# Revision: 1
# Processed by: cddbd v1.5.1PL0 Copyright (c) Steve Scherf et al.
# Submitted via: Media_Universe 3.0
#
DISCID=3b10b817
DTITLE=Various Artist - Greatest Country Songs - CD 1
DYEAR=2001
DGENRE=Country
TTITLE0=Trisha Yearwood - How Do I Live
TTITLE1=Kenny Rogers - Ruby Don't Take Your Love To Town
TTITLE2=Nilsson - Everybody's Talkin'
TTITLE3=Charlie Rich - Behind Closed Doors
TTITLE4=Juice Newton - Angel Of The Morning
TTITLE5=Bob Dylan - Lay Lady Lay
TTITLE6=Olivia Newton-John - I Honestly Love You
TTITLE7=Patsy Cline - Crazy
TTITLE8=Jim Reeves - He'll Have To Go
TTITLE9=Linda Rondstadt - Blue Bayou
TTITLE10=Dolly Parton, Loretta Lynn and Tammy Wynette - Silver Threads And Golden Needles
TTITLE11=Billy Jo Spears - I Will Survive
TTITLE12=The Everly Brothers - Bye Bye Love
TTITLE13=Reba McEntire - Cathy's Clown
TTITLE14=John D. Loudermilk - Language Of Love
TTITLE15=Shania Twain - Honey, I'm Home
TTITLE16=Kris Kristofferson - Me And Bobby McGee
TTITLE17=John Denver - Take Me Home Country Roads
TTITLE18=Lynn Anderson - Rose Garden
TTITLE19=Glen Campbell - By The Time I Get To Phoenix
TTITLE20=Roy Orbison - Crying
TTITLE21=Crystal Gayle - Don't It Make My Brown Eyes Blue
TTITLE22=Willie Nelson - Always On My Mind
EXTD=
EXTT0=
EXTT1=
EXTT2=
EXTT3=
EXTT4=
EXTT5=
EXTT6=
EXTT7=
EXTT8=
EXTT9=
EXTT10=
EXTT11=
EXTT12=
EXTT13=
EXTT14=
EXTT15=
EXTT16=
EXTT17=
EXTT18=
EXTT19=
EXTT20=
EXTT21=
EXTT22=
PLAYORDER=
